<?xml version="1.0" encoding="UTF-8" standalone="no"?>
<!-- Uploaded to: SVG Repo, www.svgrepo.com, Generator: SVG Repo Mixer Tools -->

<svg
   fill="#000000"
   width="800px"
   height="800px"
   viewBox="0 0 32 32"
   version="1.1"
   id="svg50"
   xmlns="http://www.w3.org/2000/svg">
  <path
     d="m 23.749,30.005 c -0.119,0.063 -0.109,0.083 0.005,0.025 0.037,-0.015 0.068,-0.036 0.095,-0.061 0,-0.021 0,-0.021 -0.1,0.036 z m 0.24,-0.13 c -0.057,0.047 -0.057,0.047 0.011,0.016 0.036,-0.021 0.068,-0.041 0.068,-0.047 0,-0.027 -0.016,-0.021 -0.079,0.031 z m 0.156,-0.094 c -0.057,0.047 -0.057,0.047 0.011,0.016 0.037,-0.021 0.068,-0.043 0.068,-0.048 0,-0.025 -0.016,-0.02 -0.079,0.032 z m 0.158,-0.093 c -0.057,0.047 -0.057,0.047 0.009,0.015 0.037,-0.02 0.068,-0.041 0.068,-0.047 0,-0.025 -0.016,-0.02 -0.077,0.032 z m -0.812305,-0.140995 c -0.109,0.073 -0.147,0.12 -0.047,0.068 0.067,-0.041 0.181,-0.131 0.161,-0.131 -0.043,0.016 -0.079,0.043 -0.115,0.063 z M 0,0 v 32 c 7.1184966,0 8.414255,-0.036 14.469,-0.036 0.484,0.052 2.577,0.052 3.061,0 2.216754,0 5.386701,0.036 7.570122,0.036 C 23.674373,30.225925 22.164212,28.179097 20.979,26.573 L 18.422,23.12 15.219,18.375 c -1.068,-1.588 -2.14,-3.172 -3.229,-4.744 -0.011,0 -0.025,2.109 -0.031,4.681 -0.011,4.505 -0.011,4.688 -0.068,4.792 -0.057,0.125 -0.151,0.229 -0.276,0.287 -0.099,0.047 -0.188,0.057 -0.661,0.057 H 10.413 L 10.272,23.36 c -0.088,-0.057 -0.161,-0.136 -0.208,-0.229 l -0.068,-0.141 0.005,-6.271 0.011,-6.271 0.099,-0.125 c 0.063,-0.077 0.141,-0.14 0.229,-0.187 0.131,-0.063 0.183,-0.073 0.724,-0.073 0.635,0 0.74,0.025 0.907,0.208 1.296,1.932 2.588,3.869 3.859,5.812 2.079,3.152 4.917,7.453 6.312,9.563 1.361489,2.246955 2.882271,4.285202 4.483109,6.354 H 32 C 32.129,31.12 31.93716,17.197289 32.001,16.007 31.993843,7.5707505 32,4.1388656 32,0 20.949769,-0.00580644 10.247543,0.02474178 0,0 Z m 21.5,9.688 c 0.151,0.072 0.265,0.208 0.317,0.364 0.027,0.084 0.032,1.823 0.027,5.74 l -0.011,5.624 -0.989,-1.52 -0.995,-1.521 v -4.083 c 0,-2.647 0.011,-4.131 0.025,-4.204 0.047,-0.167 0.161,-0.307 0.313,-0.395 0.124,-0.063 0.172,-0.068 0.667,-0.068 0.463,0 0.541,0.005 0.645,0.063 z"
     id="path48"/>
</svg>
