<!DOCTYPE svg PUBLIC "-//W3C//DTD SVG 1.1//EN" "http://www.w3.org/Graphics/SVG/1.1/DTD/svg11.dtd">
<!-- Uploaded to: SVG Repo, www.svgrepo.com, Transformed by: SVG Repo Mixer Tools -->
<svg width="800px" height="800px" viewBox="-102.4 -102.4 1228.80 1228.80" fill="#ffffff" class="icon" version="1.1" xmlns="http://www.w3.org/2000/svg" transform="matrix(1, 0, 0, 1, 0, 0)">
<g id="SVGRepo_bgCarrier" stroke-width="0"/>
<g id="SVGRepo_tracerCarrier" stroke-linecap="round" stroke-linejoin="round"/>
<g id="SVGRepo_iconCarrier">
<path d="M903.72 368.102c-30.744 0-71.95-46.366-71.95-93.776 0-47.568 30.26-82.098 71.95-82.098 41.688 0 71.948 34.53 71.948 82.098 0 47.412-41.206 93.776-71.948 93.776z m0-159.886c-32.43 0-55.96 27.8-55.96 66.11 0 41.782 37.536 77.788 55.96 77.788s55.958-36.006 55.958-77.788c0.002-38.308-23.528-66.11-55.958-66.11z" fill=""/>
<path d="M1015.64 464.034H791.798a7.99 7.99 0 0 1-7.994-7.994v-32.898c0-23.156 14.74-30.612 29.854-36.262 18.348-6.84 38.786-17.792 42.19-22.554a8.006 8.006 0 0 1 7.9-6.73 7.99 7.99 0 0 1 7.994 7.994c0 15.084-36.708 30.384-52.494 36.27-15.628 5.848-19.454 10.024-19.454 21.282v24.904h207.852v-24.904c0-11.25-3.826-15.426-19.47-21.29-15.772-5.878-52.478-21.196-52.478-36.262a7.988 7.988 0 0 1 7.994-7.994 8.002 8.002 0 0 1 7.9 6.73c3.404 4.746 23.842 15.708 42.188 22.554 15.116 5.66 29.856 13.124 29.856 36.262v32.898a7.994 7.994 0 0 1-7.996 7.994z" fill=""/>
<path d="M863.748 373.584a7.99 7.99 0 0 1-7.994-7.994v-25.34c0-4.42 3.576-7.994 7.994-7.994s7.994 3.574 7.994 7.994v25.34a7.99 7.99 0 0 1-7.994 7.994zM943.692 373.584a7.988 7.988 0 0 1-7.994-7.994v-25.34a7.988 7.988 0 0 1 7.994-7.994 7.988 7.988 0 0 1 7.994 7.994v25.34a7.99 7.99 0 0 1-7.994 7.994zM120.28 368.102c-30.752 0-71.95-46.366-71.95-93.776 0-47.568 30.26-82.098 71.95-82.098 41.688 0 71.948 34.53 71.948 82.098 0 47.412-41.198 93.776-71.948 93.776z m0-159.886c-32.422 0-55.96 27.8-55.96 66.11 0 41.782 37.536 77.788 55.96 77.788s55.96-36.006 55.96-77.788c0-38.308-23.538-66.11-55.96-66.11z" fill=""/>
<path d="M232.2 464.034H8.36a7.988 7.988 0 0 1-7.994-7.994v-32.898c0-23.156 14.746-30.612 29.846-36.262 18.354-6.84 38.792-17.792 42.204-22.554a7.998 7.998 0 0 1 7.894-6.73 7.99 7.99 0 0 1 7.994 7.994c0 15.084-36.716 30.384-52.5 36.27-15.63 5.848-19.448 10.024-19.448 21.282v24.904h207.852v-24.904c0-11.25-3.818-15.426-19.462-21.29-15.778-5.878-52.486-21.196-52.486-36.262a7.994 7.994 0 1 1 15.886-1.264c3.412 4.746 23.844 15.708 42.198 22.554 15.114 5.66 29.854 13.124 29.854 36.262v32.898a7.996 7.996 0 0 1-7.998 7.994z" fill=""/>
<path d="M80.308 373.584a7.99 7.99 0 0 1-7.994-7.994v-25.34c0-4.42 3.576-7.994 7.994-7.994s7.994 3.574 7.994 7.994v25.34a7.99 7.99 0 0 1-7.994 7.994zM160.25 373.584a7.99 7.99 0 0 1-7.994-7.994v-25.34a7.988 7.988 0 0 1 7.994-7.994 7.988 7.988 0 0 1 7.994 7.994v25.34a7.988 7.988 0 0 1-7.994 7.994zM512 176.24c-30.752 0-71.95-46.366-71.95-93.778 0-47.568 30.26-82.098 71.95-82.098s71.948 34.53 71.948 82.098c0 47.412-41.204 93.778-71.948 93.778z m0-159.886c-32.422 0-55.96 27.8-55.96 66.11 0 41.784 37.536 77.788 55.96 77.788s55.958-36.004 55.958-77.788c0-38.31-23.528-66.11-55.958-66.11z" fill=""/>
<path d="M623.92 272.17H400.08a7.99 7.99 0 0 1-7.994-7.994v-32.898c0-23.156 14.748-30.61 29.846-36.262 18.354-6.84 38.792-17.792 42.204-22.554a7.996 7.996 0 0 1 15.888 1.264c0 15.084-36.716 30.384-52.502 36.27-15.63 5.848-19.446 10.026-19.446 21.282v24.904h207.852v-24.904c0-11.25-3.826-15.426-19.47-21.29-15.77-5.878-52.478-21.196-52.478-36.262a7.99 7.99 0 0 1 7.994-7.994 8.002 8.002 0 0 1 7.9 6.73c3.404 4.746 23.842 15.708 42.19 22.554 15.114 5.66 29.854 13.124 29.854 36.262v32.898a7.994 7.994 0 0 1-7.998 7.994z" fill=""/>
<path d="M472.028 181.72a7.99 7.99 0 0 1-7.994-7.996v-25.34a7.99 7.99 0 0 1 7.994-7.994 7.99 7.99 0 0 1 7.996 7.994v25.34a7.992 7.992 0 0 1-7.996 7.996zM551.97 181.72a7.99 7.99 0 0 1-7.994-7.996v-25.34c0-4.418 3.576-7.994 7.994-7.994s7.994 3.576 7.994 7.994v25.34a7.99 7.99 0 0 1-7.994 7.996z" fill=""/>
<path d="M392.046 832.974a8.018 8.018 0 0 1-3.856-1c-81.426-44.982-132.008-130.828-132.008-224.042 0-141.056 114.762-255.818 255.818-255.818 4.418 0 7.994 3.576 7.994 7.994s-3.576 7.994-7.994 7.994c-132.242 0-239.83 107.586-239.83 239.83 0 87.39 47.42 167.88 123.748 210.052a7.978 7.978 0 0 1 3.13 10.852 7.956 7.956 0 0 1-7.002 4.138z" fill=""/>
<path d="M631.946 832.974a7.954 7.954 0 0 1-6.994-4.138 7.984 7.984 0 0 1 3.122-10.852c76.336-42.172 123.756-122.646 123.756-210.052 0-132.242-107.58-239.83-239.828-239.83-4.42 0-7.996-3.576-7.996-7.994s3.576-7.994 7.996-7.994c141.054 0 255.816 114.762 255.816 255.818 0 93.214-50.588 179.06-131.998 224.042-1.236 0.672-2.564 1-3.874 1zM392.084 959.68a7.988 7.988 0 0 1-7.994-7.994V824.98c0-4.42 3.576-7.996 7.994-7.996s7.994 3.576 7.994 7.996v126.706a7.986 7.986 0 0 1-7.994 7.994z" fill=""/>
<path d="M631.914 959.68a7.988 7.988 0 0 1-7.994-7.994v-126.518a7.99 7.99 0 0 1 7.994-7.996 7.99 7.99 0 0 1 7.994 7.996v126.518a7.988 7.988 0 0 1-7.994 7.994z" fill=""/>
<path d="M631.914 863.75H392.084a7.99 7.99 0 0 1-7.994-7.996 7.99 7.99 0 0 1 7.994-7.994h239.83a7.99 7.99 0 0 1 7.994 7.994 7.99 7.99 0 0 1-7.994 7.996zM599.936 991.658h-175.874a7.99 7.99 0 0 1-5.652-2.342l-31.978-31.978a7.992 7.992 0 1 1 11.304-11.304l29.634 29.634h169.254l29.634-29.634c3.124-3.124 8.182-3.124 11.304 0s3.124 8.182 0 11.304l-31.978 31.978a7.974 7.974 0 0 1-5.648 2.342zM376.088 911.714a7.994 7.994 0 0 1-0.46-15.974l271.806-15.988c4.28-0.234 8.182 3.106 8.448 7.51a8 8 0 0 1-7.51 8.448l-271.806 15.988c-0.158 0.016-0.322 0.016-0.478 0.016zM376.088 943.692a7.992 7.992 0 0 1-0.46-15.974l271.806-15.988c4.28-0.204 8.182 3.108 8.448 7.51a7.998 7.998 0 0 1-7.51 8.448l-271.806 15.988c-0.158 0.016-0.322 0.016-0.478 0.016z" fill=""/>
<path d="M512 1023.634c-44.398 0-62.37-34.912-63.112-36.396a7.99 7.99 0 0 1 3.576-10.726c3.966-1.936 8.728-0.376 10.71 3.544 0.624 1.216 14.59 27.59 48.826 27.59 34.63 0 48.668-27.292 48.808-27.558a8.032 8.032 0 0 1 10.726-3.576 8 8 0 0 1 3.576 10.726c-0.748 1.484-18.706 36.396-63.11 36.396zM472.028 831.772a7.99 7.99 0 0 1-7.994-7.994v-63.956a7.99 7.99 0 0 1 7.994-7.994 7.99 7.99 0 0 1 7.996 7.994v63.956a7.992 7.992 0 0 1-7.996 7.994zM551.97 831.772a7.99 7.99 0 0 1-7.994-7.994v-63.956c0-4.418 3.576-7.994 7.994-7.994s7.994 3.576 7.994 7.994v63.956a7.99 7.99 0 0 1-7.994 7.994z" fill=""/>
<path d="M472.036 767.816a8.008 8.008 0 0 1-6.252-2.996 8.006 8.006 0 0 1 1.25-11.242l39.972-31.978a8.006 8.006 0 0 1 11.242 1.25 8.004 8.004 0 0 1-1.248 11.242l-39.972 31.976a7.928 7.928 0 0 1-4.992 1.748z" fill=""/>
<path d="M551.97 767.816c-1.764 0-3.514-0.56-4.996-1.748l-39.972-31.976a8.01 8.01 0 0 1-1.25-11.242 8.022 8.022 0 0 1 11.242-1.25l39.97 31.978a8.006 8.006 0 0 1 1.25 11.242 7.986 7.986 0 0 1-6.244 2.996zM472.028 735.84a7.988 7.988 0 0 1-7.994-7.994v-111.92a7.99 7.99 0 0 1 7.994-7.994 7.99 7.99 0 0 1 7.996 7.994v111.92a7.99 7.99 0 0 1-7.996 7.994z" fill=""/>
<path d="M472.028 623.92a7.99 7.99 0 0 1-7.994-7.994c0-13.224-10.758-23.982-23.982-23.982s-23.982 10.758-23.982 23.982a7.99 7.99 0 0 1-7.994 7.994 7.99 7.99 0 0 1-7.996-7.994c0-22.046 17.932-39.972 39.972-39.972s39.972 17.926 39.972 39.972a7.992 7.992 0 0 1-7.996 7.994z" fill=""/>
<path d="M440.05 655.896c-22.04 0-39.972-17.924-39.972-39.97a7.99 7.99 0 0 1 7.996-7.994 7.99 7.99 0 0 1 7.994 7.994c0 13.224 10.758 23.982 23.982 23.982a7.99 7.99 0 0 1 7.994 7.994 7.988 7.988 0 0 1-7.994 7.994zM551.97 735.84a7.988 7.988 0 0 1-7.994-7.994v-111.92c0-4.418 3.576-7.994 7.994-7.994s7.994 3.576 7.994 7.994v111.92a7.988 7.988 0 0 1-7.994 7.994z" fill=""/>
<path d="M615.926 623.92a7.988 7.988 0 0 1-7.994-7.994c0-13.224-10.758-23.982-23.984-23.982-13.224 0-23.982 10.758-23.982 23.982 0 4.418-3.576 7.994-7.994 7.994s-7.994-3.576-7.994-7.994c0-22.046 17.924-39.972 39.97-39.972s39.972 17.926 39.972 39.972a7.99 7.99 0 0 1-7.994 7.994z" fill=""/>
<path d="M583.948 655.896a7.988 7.988 0 0 1-7.994-7.994 7.99 7.99 0 0 1 7.994-7.994c13.226 0 23.984-10.758 23.984-23.982a7.988 7.988 0 0 1 7.994-7.994 7.99 7.99 0 0 1 7.994 7.994c0 22.046-17.926 39.97-39.972 39.97zM328.13 615.926a7.99 7.99 0 0 1-7.994-7.994c0-105.792 86.07-191.864 191.864-191.864a7.99 7.99 0 0 1 7.994 7.994 7.99 7.99 0 0 1-7.994 7.994c-96.978 0-175.876 78.896-175.876 175.876a7.99 7.99 0 0 1-7.994 7.994zM519.994 655.896h-15.99a7.988 7.988 0 0 1-7.994-7.994 7.99 7.99 0 0 1 7.994-7.994h15.99a7.99 7.99 0 0 1 7.994 7.994 7.988 7.988 0 0 1-7.994 7.994z" fill=""/>
<path d="M512 336.124a7.99 7.99 0 0 1-7.996-7.994v-31.976A7.99 7.99 0 0 1 512 288.16a7.99 7.99 0 0 1 7.994 7.994v31.976a7.988 7.988 0 0 1-7.994 7.994z" fill=""/>
<path d="M903.72 607.932a7.99 7.99 0 0 1-7.996-7.994v-111.92a7.99 7.99 0 0 1 7.996-7.994 7.988 7.988 0 0 1 7.992 7.994v111.92a7.988 7.988 0 0 1-7.992 7.994z" fill=""/>
<path d="M903.72 607.932h-111.922c-4.418 0-7.994-3.576-7.994-7.994s3.576-7.994 7.994-7.994h111.922c4.418 0 7.992 3.576 7.992 7.994s-3.574 7.994-7.992 7.994z" fill=""/>
<path d="M120.28 607.932a7.99 7.99 0 0 1-7.994-7.994v-111.92a7.988 7.988 0 0 1 7.994-7.994 7.988 7.988 0 0 1 7.994 7.994v111.92a7.99 7.99 0 0 1-7.994 7.994z" fill=""/>
<path d="M232.2 607.932H120.28c-4.418 0-7.994-3.576-7.994-7.994s3.576-7.994 7.994-7.994h111.92c4.418 0 7.994 3.576 7.994 7.994s-3.576 7.994-7.994 7.994z" fill=""/>
</g>
</svg>