<svg width="27" height="27" viewBox="0 0 27 27" fill="none" xmlns="http://www.w3.org/2000/svg">
<path fill-rule="evenodd" clip-rule="evenodd" d="M2.8125 13.5C2.8125 10.6655 3.9385 7.94709 5.9428 5.9428C7.94709 3.9385 10.6655 2.8125 13.5 2.8125C16.3345 2.8125 19.0529 3.9385 21.0572 5.9428C23.0615 7.94709 24.1875 10.6655 24.1875 13.5C24.1875 16.3345 23.0615 19.0529 21.0572 21.0572C19.0529 23.0615 16.3345 24.1875 13.5 24.1875C10.6655 24.1875 7.94709 23.0615 5.9428 21.0572C3.9385 19.0529 2.8125 16.3345 2.8125 13.5ZM13.5 1.125C6.66563 1.125 1.125 6.66563 1.125 13.5C1.125 20.3344 6.66563 25.875 13.5 25.875C20.3344 25.875 25.875 20.3344 25.875 13.5C25.875 6.66563 20.3344 1.125 13.5 1.125ZM13.5 15.75C14.0967 15.75 14.669 15.5129 15.091 15.091C15.5129 14.669 15.75 14.0967 15.75 13.5C15.75 12.9033 15.5129 12.331 15.091 11.909C14.669 11.4871 14.0967 11.25 13.5 11.25C12.9033 11.25 12.331 11.4871 11.909 11.909C11.4871 12.331 11.25 12.9033 11.25 13.5C11.25 14.0967 11.4871 14.669 11.909 15.091C12.331 15.5129 12.9033 15.75 13.5 15.75Z" fill="black"/>
</svg>
