<svg width="24" height="24" viewBox="0 0 24 24" fill="none" xmlns="http://www.w3.org/2000/svg">
<path d="M4.5 23.7001C4.1 23.7001 3.75 23.5501 3.45 23.2501C3.15 22.9501 3 22.6001 3 22.2001V7.2001C3 6.8001 3.15 6.4501 3.45 6.1501C3.75 5.8501 4.1 5.7001 4.5 5.7001H14.625L13.125 7.2001H4.5V22.2001H19.5V13.5001L21 12.0001V22.2001C21 22.6001 20.85 22.9501 20.55 23.2501C20.25 23.5501 19.9 23.7001 19.5 23.7001H4.5ZM16.55 5.9001L17.625 6.9501L10.5 14.0501V16.2001H12.625L19.775 9.0501L20.825 10.1001L13.25 17.7001H9V13.4501L16.55 5.9001ZM20.825 10.1001L16.55 5.9001L19.05 3.4001C19.3333 3.11676 19.6859 2.9751 20.1078 2.9751C20.5296 2.9751 20.8854 3.1251 21.175 3.4251L23.275 5.5501C23.5583 5.8501 23.7 6.20403 23.7 6.6119C23.7 7.01976 23.55 7.36583 23.25 7.6501L20.825 10.1001Z" fill="#1A1B50"/>
</svg>
