<!DOCTYPE svg PUBLIC "-//W3C//DTD SVG 1.1//EN" "http://www.w3.org/Graphics/SVG/1.1/DTD/svg11.dtd">

<!-- Uploaded to: SVG Repo, www.svgrepo.com, Transformed by: SVG Repo Mixer Tools -->
<svg fill="#000000" width="800px" height="800px" viewBox="0 0 32 32" version="1.1" xmlns="http://www.w3.org/2000/svg" stroke="#000000" stroke-width="0.0032">

<g id="SVGRepo_bgCarrier" stroke-width="0"/>

<g id="SVGRepo_tracerCarrier" stroke-linecap="round" stroke-linejoin="round"/>

<g id="SVGRepo_iconCarrier"> <title>pen</title> <path d="M30.75 7.002c0-0 0-0.001 0-0.002 0-0.207-0.084-0.395-0.219-0.531l-5-5c-0.136-0.136-0.324-0.22-0.531-0.22s-0.395 0.084-0.531 0.22v0l-20.999 20.999c-0.087 0.088-0.153 0.198-0.189 0.321l-0.001 0.005-2 7c-0.018 0.062-0.029 0.133-0.029 0.207 0 0.413 0.335 0.748 0.748 0.748 0.001 0 0.001 0 0.002 0h-0c0.001 0 0.002 0 0.003 0 0.075 0 0.146-0.011 0.214-0.033l-0.005 0.001 6.788-2c0.124-0.037 0.23-0.101 0.315-0.186l-0 0 21.212-21c0.137-0.135 0.223-0.323 0.223-0.531v-0zM8.395 27.334l-5.299 1.561 1.572-5.502 15.335-15.335 3.931 3.892zM25 10.895l-3.937-3.898 3.937-3.937 3.938 3.937z"/> </g>

</svg>