<svg width="32" height="26" viewBox="0 0 32 26" fill="none" xmlns="http://www.w3.org/2000/svg">
<path d="M27.333 25C29.1739 25 30.6663 23.5076 30.6663 21.6667C30.6663 18.5635 28.0639 17.2651 25.333 16.7223M19.9997 11.6667C22.9451 11.6667 25.333 9.27885 25.333 6.33333C25.333 3.38781 22.9451 1 19.9997 1M4.66634 25.0001H19.333C21.1739 25.0001 22.6663 23.5077 22.6663 21.6668C22.6663 16.2259 14.6663 16.3335 11.9997 16.3335C9.33301 16.3335 1.33301 16.2259 1.33301 21.6668C1.33301 23.5077 2.82539 25.0001 4.66634 25.0001ZM17.333 6.33333C17.333 9.27885 14.9451 11.6667 11.9997 11.6667C9.05415 11.6667 6.66634 9.27885 6.66634 6.33333C6.66634 3.38781 9.05415 1 11.9997 1C14.9451 1 17.333 3.38781 17.333 6.33333Z" stroke="black" stroke-opacity="0.6" stroke-linecap="round" stroke-linejoin="round"/>
</svg>
