<svg width="20" height="19" viewBox="0 0 20 19" fill="none" xmlns="http://www.w3.org/2000/svg">
<path d="M10 18.9749L8.975 18.0499C7.2122 16.4312 5.75483 15.0349 4.6029 13.8609C3.45097 12.6869 2.53333 11.6374 1.85 10.7124C1.16667 9.7874 0.6875 8.9499 0.4125 8.1999C0.1375 7.4499 0 6.69157 0 5.9249C0 4.42232 0.504167 3.16751 1.5125 2.16048C2.52083 1.15343 3.76667 0.649902 5.25 0.649902C6.2 0.649902 7.07917 0.874902 7.8875 1.3249C8.69583 1.7749 9.4 2.4249 10 3.2749C10.7 2.3749 11.4417 1.7124 12.225 1.2874C13.0083 0.862402 13.85 0.649902 14.75 0.649902C16.2333 0.649902 17.4792 1.15343 18.4875 2.16048C19.4958 3.16751 20 4.42232 20 5.9249C20 6.69157 19.8625 7.4499 19.5875 8.1999C19.3125 8.9499 18.8333 9.7874 18.15 10.7124C17.4667 11.6374 16.549 12.6869 15.3971 13.8609C14.2452 15.0349 12.7878 16.4312 11.025 18.0499L10 18.9749ZM10 16.9999C11.6873 15.45 13.0758 14.1208 14.1655 13.0125C15.2551 11.9041 16.1208 10.9332 16.7625 10.0999C17.4042 9.26657 17.8542 8.52378 18.1125 7.87153C18.3708 7.21926 18.5 6.57159 18.5 5.92853C18.5 4.82611 18.15 3.92074 17.45 3.2124C16.75 2.50407 15.8519 2.1499 14.7556 2.1499C13.8969 2.1499 13.1021 2.4124 12.3712 2.9374C11.6404 3.4624 11.05 4.1999 10.6 5.1499H9.375C8.94167 4.21657 8.35958 3.48324 7.62875 2.9499C6.8979 2.41657 6.10311 2.1499 5.24437 2.1499C4.14812 2.1499 3.25 2.50407 2.55 3.2124C1.85 3.92074 1.5 4.82754 1.5 5.9328C1.5 6.57754 1.62917 7.22907 1.8875 7.8874C2.14583 8.54574 2.59583 9.29574 3.2375 10.1374C3.87917 10.9791 4.75 11.9499 5.85 13.0499C6.95 14.1499 8.33333 15.4666 10 16.9999Z" fill="#1A1B50"/>
</svg>
