<svg width="24" height="24" viewBox="0 0 24 24" fill="none" xmlns="http://www.w3.org/2000/svg">
<path d="M9.4249 19.05V17.55H20.9999V19.05H9.4249ZM9.4249 12.75V11.25H20.9999V12.75H9.4249ZM9.4249 6.425V4.925H20.9999V6.425H9.4249ZM4.7249 19.975C4.2574 19.975 3.85719 19.8167 3.52428 19.5C3.19136 19.1833 3.0249 18.7875 3.0249 18.3125C3.0249 17.8375 3.1874 17.4375 3.5124 17.1125C3.8374 16.7875 4.2374 16.625 4.7124 16.625C5.1874 16.625 5.58324 16.7915 5.8999 17.1244C6.21657 17.4573 6.3749 17.8575 6.3749 18.325C6.3749 18.7788 6.21334 19.1672 5.89023 19.4903C5.56709 19.8134 5.17865 19.975 4.7249 19.975ZM4.7249 13.675C4.2574 13.675 3.85719 13.511 3.52428 13.183C3.19136 12.855 3.0249 12.4606 3.0249 12C3.0249 11.5394 3.19136 11.145 3.52428 10.817C3.85719 10.489 4.2574 10.325 4.7249 10.325C5.17865 10.325 5.56709 10.489 5.89023 10.817C6.21334 11.145 6.3749 11.5394 6.3749 12C6.3749 12.4606 6.21334 12.855 5.89023 13.183C5.56709 13.511 5.17865 13.675 4.7249 13.675ZM4.6999 7.35C4.23929 7.35 3.84496 7.18599 3.51693 6.85798C3.18891 6.52996 3.0249 6.13563 3.0249 5.675C3.0249 5.21437 3.18891 4.82004 3.51693 4.49202C3.84496 4.16401 4.23929 4 4.6999 4C5.16052 4 5.55484 4.16401 5.88288 4.49202C6.21089 4.82004 6.3749 5.21437 6.3749 5.675C6.3749 6.13563 6.21089 6.52996 5.88288 6.85798C5.55484 7.18599 5.16052 7.35 4.6999 7.35Z" fill="#1A1B50"/>
</svg>
