<?xml version="1.0" encoding="UTF-8" standalone="no"?>
<svg
   version="1.0"
   width="19pt"
   height="19pt"
   viewBox="0 0 25.333333 25.333333"
   preserveAspectRatio="xMidYMid"
   id="svg40"
   xmlns="http://www.w3.org/2000/svg">
  <g
     transform="matrix(0,-0.00867179,0.00867911,0,-1.3152483,26.667318)"
     fill="#1a1b50"
     stroke="none"
     id="g38">
    <path
       d="M 1365,3044 C 569.75792,2929.541 -12.21564,2048.1548 196.63335,1271.9649 366.11407,501.51756 1250.7841,-28.612952 2008.0247,208.70449 2729.3375,402.98229 3228.0417,1219.5644 3032.4223,1948.2 2868.7439,2665.9513 2094.2691,3197.0732 1365,3044 Z m 477,-320 C 2514.9065,2608.8137 2949.8233,1783.8144 2657.6917,1165.0178 2412.8564,534.33084 1527.7229,264.56366 980.54528,670.08155 457.26486,1001.3461 302.36653,1811.4483 713.14739,2289.4689 971.88618,2622.9709 1421.6593,2827.5073 1842,2724 Z"
       id="path34" />
    <path
       d="M 1858,1994 C 1678.7349,1893.4041 1436.6566,1839.8165 1353.9947,1628.007 1235.0749,1391.1308 1114.972,1154.7972 1002,915 c 290.3498,137.9008 575.0676,287.2024 863,430 143.2446,287.7067 292.7803,572.3602 428,864 -146.4637,-68.6716 -290.1282,-143.0814 -435,-215 z m -148,-636 c -174.7819,-100.9439 -357.1125,-187.9275 -540,-273 87.589,184.1808 181.0169,365.4925 272,548 89.4186,-91.5757 183.9769,-178.268 268,-275 z"
       id="path36" />
  </g>
</svg>
