<?xml version="1.0" encoding="UTF-8" standalone="no"?>
<svg
   width="19"
   height="19"
   viewBox="0 0 19 19"
   fill="none"
   version="1.1"
   id="svg232"
   xmlns="http://www.w3.org/2000/svg">
  <g
     id="g230"
     transform="matrix(1.0445547,0,0,1.0863375,-3.8854612,-4.1713621)">
    <path
       d="m 16.7197,14.8398 h -0.8216 l -0.2912,-0.27 c 1.0192,-1.14 1.6328,-2.62 1.6328,-4.23 0,-3.58996 -3.0264,-6.49996 -6.76,-6.49996 -3.73357,0 -6.75997,2.91 -6.75997,6.49996 0,3.59 3.0264,6.5 6.75997,6.5 1.6744,0 3.2136,-0.59 4.3992,-1.57 l 0.2808,0.28 v 0.79 l 5.2,4.99 1.5496,-1.49 z m -6.24,0 c -2.58957,0 -4.67997,-2.01 -4.67997,-4.5 0,-2.48996 2.0904,-4.49996 4.67997,-4.49996 2.5896,0 4.68,2.01 4.68,4.49996 0,2.49 -2.0904,4.5 -4.68,4.5 z"
       fill="#1a1b50"
       id="path226" />
    <path
       d="m 13.0799,10.8398 h -2.08 v 2 H 9.95988 v -2 h -2.08 V 9.83984 h 2.08 v -2 h 1.04002 v 2 h 2.08 z"
       fill="#1a1b50"
       id="path228" />
  </g>
</svg>
