<?xml version="1.0" encoding="UTF-8" standalone="no"?>
<svg
   width="19"
   height="19"
   viewBox="0 0 19 19"
   fill="none"
   version="1.1"
   id="svg955"
   xmlns="http://www.w3.org/2000/svg">
  <path
     d="M 13.579202,11.949667 C 13.205946,11.899391 12.730709,12.10179 12.488893,11.725849 12.762,11.061545 13.517276,10.25463 13.722254,9.4041197 14.81063,6.4689155 13.634107,2.9126988 11.009228,1.2058972 8.3680927,-0.64578002 4.482624,-0.31960209 2.1893163,1.9497567 -0.18721519,4.1316296 -0.69913002,7.9953178 1.0222294,10.722719 c 1.5839145,2.712106 5.0950633,4.057915 8.0853163,3.096852 0.9350103,-0.283309 1.8085023,-0.765563 2.5488493,-1.402778 0.334325,0.202965 0.315029,0.548651 0.293309,0.895316 -0.07711,0.407622 0.401225,0.584844 0.608607,0.874458 C 14.165995,15.791044 15.77368,17.395522 17.381365,19 17.92091,18.460452 18.460455,17.920905 19,17.381357 17.193067,15.570794 15.386135,13.76023 13.579202,11.949667 Z m -6.518045,0 C 4.6295932,12.007627 2.3894084,9.9863695 2.1978447,7.5618584 1.9004846,5.1878208 3.6136362,2.7867829 5.9555562,2.2975902 8.2783679,1.7081988 10.877614,3.1099138 11.65364,5.3783011 12.522451,7.6136407 11.449132,10.368849 9.2889201,11.415828 8.6027717,11.767859 7.8320965,11.950851 7.061157,11.949667 Z M 4.3453266,6.5180225 c 1.8105536,0 3.6211073,0 5.4316609,0 0,0.3621126 0,0.7242252 0,1.0863378 -1.8105536,0 -3.6211073,0 -5.4316609,0 0,-0.3621126 0,-0.7242252 0,-1.0863378 z"
     fill="#1a1b50"
     id="path953"
     style="stroke-width:1.06525" />
</svg>
