<svg width="86" height="86" viewBox="0 0 86 86" fill="none" xmlns="http://www.w3.org/2000/svg">
<g clip-path="url(#clip0_759_1483)">
<path d="M48.8881 40.7843C49.0088 41.02 49.1921 41.2177 49.4179 41.3558C49.6438 41.4939 49.9034 41.5669 50.1681 41.5669C50.3938 41.5668 50.6163 41.5133 50.8174 41.4107C50.9019 41.3677 59.3386 37.082 63.4995 35.7676C64.2535 35.5283 64.6719 34.7227 64.4325 33.9689C64.376 33.7892 64.2847 33.6225 64.1636 33.4782C64.0426 33.3338 63.8943 33.2148 63.7272 33.1279C63.5602 33.041 63.3776 32.9878 63.19 32.9715C63.0023 32.9553 62.8133 32.9761 62.6338 33.033C58.2507 34.419 49.8714 38.676 49.516 38.8566C48.8107 39.2148 48.5299 40.0779 48.8881 40.7843ZM50.1681 24.3672C50.3938 24.3671 50.6163 24.3136 50.8174 24.211C50.9019 24.168 59.3386 19.8823 63.4995 18.568C64.2535 18.3286 64.6719 17.523 64.4325 16.7692C64.376 16.5895 64.2847 16.4228 64.1636 16.2785C64.0426 16.1342 63.8943 16.0151 63.7272 15.9282C63.5602 15.8413 63.3776 15.7881 63.19 15.7718C63.0023 15.7556 62.8133 15.7764 62.6338 15.8333C58.2507 17.2193 49.8714 21.4763 49.516 21.6569C48.8109 22.0151 48.5299 22.878 48.8881 23.5846C49.0088 23.8202 49.1921 24.018 49.418 24.156C49.6438 24.2941 49.9034 24.3672 50.1681 24.3672Z" fill="black"/>
<path d="M84.5661 21.5003C84.3778 21.5003 84.1914 21.5373 84.0175 21.6093C83.8436 21.6813 83.6855 21.7869 83.5524 21.92C83.4193 22.0531 83.3138 22.2111 83.2418 22.385C83.1698 22.559 83.1327 22.7454 83.1328 22.9336V78.8332C83.1328 81.2039 81.2035 83.1331 78.8328 83.1331H44.4331V79.8351C46.5229 79.1041 51.9666 77.3999 57.333 77.3999C69.8187 77.3999 78.2968 80.1648 78.3813 80.1934C78.5968 80.2642 78.8259 80.2831 79.05 80.2488C79.2741 80.2144 79.487 80.1276 79.6713 79.9955C79.8555 79.8627 80.0055 79.6881 80.1089 79.486C80.2123 79.2839 80.2662 79.06 80.2661 78.833V15.7671C80.2665 15.4409 80.1554 15.1244 79.9513 14.87C79.7472 14.6155 79.4622 14.4385 79.1437 14.3681C79.1437 14.3681 78.02 14.1173 76.0993 13.7646C75.3238 13.6213 74.5743 14.1373 74.4309 14.9142C74.2876 15.6939 74.8021 16.4407 75.5805 16.5839C76.1877 16.6953 76.794 16.8114 77.3994 16.9323V76.9282C74.1514 76.0768 66.939 74.5332 57.3328 74.5332C51.0878 74.5332 44.9533 76.5842 43.0554 77.2795C41.3684 76.5342 36.2687 74.5332 30.0996 74.5332C20.2268 74.5332 12.0942 76.1615 8.59976 76.9885V16.8764C11.4621 16.1726 19.9159 14.3337 30.0996 14.3337C35.3256 14.3337 39.8074 15.9604 41.5662 16.6958V73.0999C41.5663 73.3536 41.6337 73.6027 41.7616 73.8218C41.8894 74.0409 42.0731 74.2222 42.2939 74.3471C42.5147 74.472 42.7647 74.5361 43.0183 74.5328C43.272 74.5294 43.5202 74.4589 43.7377 74.3283C43.8796 74.2438 58.081 65.7613 70.6856 61.5602C70.9711 61.4651 71.2194 61.2826 71.3954 61.0384C71.5714 60.7943 71.666 60.501 71.666 60.2V1.43377C71.6659 1.20208 71.6097 0.973857 71.5021 0.768666C71.3945 0.563475 71.2388 0.387439 71.0482 0.255649C70.8579 0.12343 70.6384 0.0393613 70.4085 0.010661C70.1786 -0.0180393 69.9451 0.00948567 69.7282 0.0908732C58.2602 4.39218 46.6561 11.6133 46.5399 11.685C45.8691 12.1049 45.6641 12.9893 46.084 13.6601C46.5026 14.331 47.387 14.5359 48.0592 14.116C48.1652 14.0486 58.2602 7.76782 68.7993 3.5295V59.1739C59.0154 62.5737 48.8001 68.1251 44.4328 70.6103V15.7671C44.4327 15.5008 44.3586 15.2397 44.2186 15.0132C44.0786 14.7866 43.8783 14.6035 43.6401 14.4843C43.3935 14.3626 37.5199 11.4671 30.0996 11.4671C17.1481 11.4671 7.19085 14.2693 6.77228 14.3896C6.47289 14.4751 6.2095 14.6558 6.02198 14.9043C5.83447 15.1529 5.73304 15.4558 5.73306 15.7671V78.8333C5.73347 79.0549 5.78504 79.2734 5.88375 79.4718C5.98246 79.6703 6.12564 79.8432 6.30214 79.9772C6.55103 80.1653 6.85453 80.267 7.1665 80.2668C7.29835 80.2668 7.43021 80.2481 7.55921 80.2108C7.65814 80.1836 17.5696 77.4001 30.0996 77.4001C35.3398 77.4001 39.8175 79.0312 41.5662 79.7635V83.1333H7.1665C4.79581 83.1333 2.86653 81.204 2.86653 78.8333V22.9338C2.86653 22.1426 2.22439 21.5005 1.43327 21.5005C0.642139 21.5005 0 22.1426 0 22.9338V78.8333C0 82.7849 3.2149 86 7.16667 86H78.8328C82.7844 86 85.9995 82.7851 85.9995 78.8333V22.9338C85.9995 22.7455 85.9625 22.5591 85.8905 22.3852C85.8185 22.2112 85.7129 22.0532 85.5798 21.9201C85.4466 21.787 85.2886 21.6814 85.1147 21.6094C84.9407 21.5373 84.7543 21.5003 84.5661 21.5003Z" fill="black"/>
<path d="M48.8875 32.1844C49.0082 32.42 49.1915 32.6178 49.4173 32.7559C49.6432 32.8939 49.9027 32.967 50.1674 32.967C50.3932 32.9669 50.6157 32.9134 50.8168 32.8108C50.9013 32.7678 59.338 28.4821 63.4988 27.1677C64.2529 26.9284 64.6713 26.1228 64.4319 25.369C64.3754 25.1893 64.284 25.0226 64.163 24.8783C64.042 24.7339 63.8937 24.6149 63.7266 24.528C63.5595 24.4411 63.377 24.3879 63.1893 24.3716C63.0017 24.3554 62.8127 24.3762 62.6331 24.4331C58.25 25.8191 49.8708 30.0761 49.5154 30.2567C48.8101 30.6149 48.5293 31.478 48.8875 32.1844ZM48.8875 49.3843C49.0082 49.6199 49.1915 49.8176 49.4173 49.9557C49.6432 50.0938 49.9027 50.1669 50.1674 50.1669C50.3932 50.1667 50.6157 50.1132 50.8168 50.0106C50.9013 49.9676 59.338 45.682 63.4988 44.3676C64.2529 44.1283 64.6713 43.3227 64.4319 42.5688C64.3754 42.3892 64.284 42.2224 64.163 42.0781C64.042 41.9338 63.8937 41.8148 63.7266 41.7279C63.5595 41.6409 63.377 41.5878 63.1893 41.5715C63.0017 41.5552 62.8127 41.5761 62.6331 41.6329C58.25 43.019 49.8708 47.276 49.5154 47.4565C48.8101 47.8148 48.5293 48.6778 48.8875 49.3843ZM34.7264 26.6003C25.8757 24.5234 15.8179 27.1694 15.3952 27.2826C15.2111 27.3294 15.0382 27.4122 14.8865 27.5263C14.7347 27.6404 14.6072 27.7835 14.5112 27.9473C14.4152 28.1112 14.3527 28.2924 14.3273 28.4806C14.3019 28.6687 14.3142 28.8601 14.3634 29.0434C14.4126 29.2268 14.4977 29.3986 14.6138 29.5488C14.7299 29.6991 14.8747 29.8247 15.0398 29.9185C15.2048 30.0123 15.3869 30.0724 15.5754 30.0953C15.7639 30.1182 15.955 30.1034 16.1377 30.0517C16.2338 30.0245 25.9173 27.4775 34.073 29.391C34.8397 29.5702 35.6153 29.0928 35.7958 28.3217C35.9762 27.5521 35.4975 26.7809 34.7264 26.6003ZM34.7264 35.2003C25.8757 33.1249 15.8179 35.7694 15.3952 35.8826C15.2111 35.9293 15.0382 36.0121 14.8865 36.1262C14.7347 36.2403 14.6072 36.3835 14.5112 36.5473C14.4152 36.7111 14.3527 36.8923 14.3273 37.0805C14.3019 37.2687 14.3142 37.46 14.3634 37.6434C14.4126 37.8268 14.4977 37.9986 14.6138 38.1488C14.7299 38.299 14.8747 38.4247 15.0398 38.5185C15.2048 38.6123 15.3869 38.6724 15.5754 38.6952C15.7639 38.7181 15.955 38.7033 16.1377 38.6517C16.2338 38.6245 25.9173 36.0774 34.073 37.9909C34.8397 38.1701 35.6153 37.6927 35.7958 36.9216C35.9762 36.152 35.4975 35.3808 34.7264 35.2003ZM48.8875 57.9842C49.0082 58.2198 49.1915 58.4176 49.4173 58.5557C49.6432 58.6937 49.9027 58.7668 50.1674 58.7668C50.3932 58.7667 50.6157 58.7132 50.8168 58.6106C50.9013 58.5676 59.338 54.2819 63.4988 52.9675C64.2529 52.7282 64.6713 51.9226 64.4319 51.1688C64.3754 50.9891 64.284 50.8224 64.163 50.6781C64.042 50.5337 63.8937 50.4147 63.7266 50.3278C63.5595 50.2409 63.377 50.1877 63.1893 50.1714C63.0017 50.1551 62.8127 50.176 62.6331 50.2329C58.25 51.6189 49.8708 55.8759 49.5154 56.0565C48.8101 56.4147 48.5293 57.2778 48.8875 57.9842ZM34.7264 43.8002C25.8757 41.7248 15.8179 44.3678 15.3952 44.4825C15.028 44.581 14.715 44.8213 14.525 45.1506C14.3349 45.4798 14.2835 45.8711 14.3818 46.2383C14.4634 46.5429 14.6432 46.8122 14.8932 47.0044C15.1432 47.1967 15.4496 47.3012 15.765 47.3018C15.8883 47.3018 16.013 47.2847 16.1377 47.2516C16.2338 47.2244 25.9173 44.6773 34.073 46.5908C34.8397 46.77 35.6153 46.2927 35.7958 45.5215C35.9762 44.7519 35.4975 43.9808 34.7264 43.8002ZM34.7264 61.0001C25.8757 58.9232 15.8179 61.5692 15.3952 61.6824C15.028 61.7809 14.715 62.0212 14.525 62.3504C14.3349 62.6797 14.2835 63.0709 14.3818 63.4381C14.4634 63.7428 14.6432 64.012 14.8932 64.2043C15.1432 64.3965 15.4496 64.5011 15.765 64.5017C15.8883 64.5017 16.013 64.4846 16.1377 64.4515C16.2338 64.4243 25.9173 61.8772 34.073 63.7907C34.8397 63.9684 35.6153 63.4925 35.7958 62.7214C35.9762 61.9518 35.4975 61.1806 34.7264 61.0001ZM34.7264 52.4001C25.8757 50.3232 15.8179 52.9677 15.3952 53.0824C15.028 53.181 14.715 53.4213 14.525 53.7505C14.3349 54.0798 14.2835 54.471 14.3818 54.8382C14.4634 55.1428 14.6432 55.4121 14.8932 55.6044C15.1432 55.7966 15.4496 55.9011 15.765 55.9018C15.8883 55.9018 16.013 55.8846 16.1377 55.8515C16.2338 55.8243 25.9173 53.2773 34.073 55.1908C34.8397 55.37 35.6153 54.8926 35.7958 54.1215C35.9762 53.3518 35.4975 52.5807 34.7264 52.4001Z" fill="black"/>
</g>
<defs>
<clipPath id="clip0_759_1483">
<rect width="86" height="86" fill="black"/>
</clipPath>
</defs>
</svg>
